<?xml version="1.0" encoding="UTF-8"?>
<svg width="48px" height="48px" viewBox="0 0 48 48" version="1.1" xmlns="http://www.w3.org/2000/svg" xmlns:xlink="http://www.w3.org/1999/xlink">
    <!-- Generator: sketchtool 61 (101010) - https://sketch.com -->
    <title>1F1DAB24-AD58-420F-AA72-BDF102CEEE4E</title>
    <desc>Created with sketchtool.</desc>
    <defs>
        <polygon id="path-1" points="3.726e-05 3.726e-05 35.7696373 3.726e-05 35.7696373 47.6928 3.726e-05 47.6928"></polygon>
        <polygon id="path-3" points="0.00011178 3.726e-05 35.7696 3.726e-05 35.7696 47.6928 0.00011178 47.6928"></polygon>
    </defs>
    <g id="Welcome" stroke="none" stroke-width="1" fill="none" fill-rule="evenodd">
        <g id="Covid-Popup" transform="translate(-697.000000, -222.000000)">
            <g id="Group" transform="translate(505.000000, 222.000000)">
                <g id="covid-icon" transform="translate(192.000000, 0.000000)">
                    <path d="M15.6492373,17.1396373 C15.6492373,6.70683726 22.3560373,0.74523726 31.2984373,0.74523726 C40.3526173,0.74523726 46.9476373,7.33988466 46.9476373,16.3944373 C46.9476373,24.5916373 44.7120373,26.8272373 44.7120373,32.7888373 C44.7120373,34.2792373 44.7120373,35.0244373 46.9476373,40.9860373 L29.0628373,46.9476373 L26.0820373,38.7504373 L18.6300373,38.7504373 L16.3944373,28.3176373 L12.6684373,28.3176373 L12.6684373,27.5724373 L15.6492373,17.1396373 Z" id="Fill-1" fill="#FFFFFF"></path>
                    <g id="Group-5">
                        <mask id="mask-2" fill="white">
                            <use xlink:href="#path-1"></use>
                        </mask>
                        <g id="Clip-4"></g>
                        <path d="M32.7888373,17.1396373 C32.7888373,7.45203726 26.0820373,3.726e-05 16.3944373,3.726e-05 C7.33988466,3.726e-05 3.726e-05,7.33988466 3.726e-05,16.3944373 C3.726e-05,24.5916373 2.98083726,26.8272373 2.98083726,32.7888373 C2.98083726,34.2792373 2.23563726,35.7696373 3.726e-05,41.7312373 L18.6300373,47.6928373 L21.6108373,38.7504373 L29.2606879,38.7504373 C30.0021619,38.7504373 30.6311107,38.2049509 30.7361839,37.4705563 L32.0436373,28.3176373 L35.7696373,28.3176373 L35.7696373,27.5724373 L32.7888373,17.1396373 Z" id="Fill-3" fill="#B2D426" mask="url(#mask-2)"></path>
                    </g>
                    <g id="Group-8" transform="translate(11.923200, 0.000000)">
                        <mask id="mask-4" fill="white">
                            <use xlink:href="#path-3"></use>
                        </mask>
                        <g id="Clip-7"></g>
                        <path d="M7.30940598,38.0052373 L14.1589118,38.0052373 C14.4722684,38.0052373 14.752091,38.2012249 14.8593998,38.4955789 L17.5920482,46.0112935 L34.056497,40.5232681 C32.0437118,35.0937409 32.0437118,34.3023385 32.0437118,32.7888373 C32.0437118,29.9555869 32.5321904,27.9394483 33.0493592,25.8048229 C33.654089,23.3098933 34.2793118,20.7296383 34.2793118,16.3944373 C34.2793118,7.75831446 28.0114346,1.49043726 19.3753118,1.49043726 C10.3215044,1.49043726 4.47131178,7.63312086 4.47131178,17.1396373 C4.47131178,17.2089409 4.46125158,17.2778719 4.44262158,17.3445673 L1.52031978,27.5724373 L4.47131178,27.5724373 C4.82267358,27.5724373 5.12634258,27.8179807 5.20011738,28.1615179 L7.30940598,38.0052373 Z M17.1397118,47.6928378 C16.8341798,47.6928378 16.5491408,47.5043017 16.4392238,47.2024957 L13.6368992,39.4956373 L6.70691178,39.4956373 C6.35517738,39.4956373 6.05188098,39.2500939 5.97810618,38.9065567 L3.86881758,29.0628373 L0.74531178,29.0628373 C0.33358878,29.0628373 0.00011178,28.7289877 0.00011178,28.3176373 L0.00011178,27.5724373 C0.00011178,27.5031337 0.00979938,27.4342027 0.02880198,27.3675073 L2.98128438,17.0345641 C3.02599638,6.84060066 9.60275898,3.726e-05 19.3753118,3.726e-05 C28.8747488,3.726e-05 35.7697118,6.89500026 35.7697118,16.3944373 C35.7697118,20.9073685 35.0938154,23.6959069 34.498028,26.1558121 C34.00247,28.2013861 33.5341118,30.1336897 33.5341118,32.7888373 C33.5341118,34.1872051 33.5341118,34.8895561 35.7223916,40.7244721 C35.7931856,40.9141255 35.7842432,41.1242719 35.6970548,41.3068459 C35.6098664,41.4897925 35.451884,41.6291449 35.2603676,41.6928595 L17.3755676,47.6544595 C17.2973216,47.6805415 17.2179578,47.6928378 17.1397118,47.6928378 L17.1397118,47.6928378 Z" id="Fill-6" fill="#2D2D2E" mask="url(#mask-4)"></path>
                    </g>
                    <path d="M24.5916373,19.3752373 C22.5371209,19.3752373 20.8656373,18.0379759 20.8656373,16.3944373 L22.3560373,16.3944373 C22.3560373,17.2022341 23.3799421,17.8848373 24.5916373,17.8848373 C25.8033325,17.8848373 26.8272373,17.2022341 26.8272373,16.3944373 L28.3176373,16.3944373 C28.3176373,18.0379759 26.6461537,19.3752373 24.5916373,19.3752373" id="Fill-9" fill="#2D2D2E"></path>
                </g>
            </g>
        </g>
    </g>
</svg>