<?xml version="1.0" encoding="UTF-8"?>
<svg width="70px" height="95px" viewBox="0 0 70 95" version="1.1" xmlns="http://www.w3.org/2000/svg" xmlns:xlink="http://www.w3.org/1999/xlink">
    <!-- Generator: sketchtool 61 (101010) - https://sketch.com -->
    <title>0D2E0322-C4D5-483C-BDF1-14552178D4C4</title>
    <desc>Created with sketchtool.</desc>
    <g id="Welcome" stroke="none" stroke-width="1" fill="none" fill-rule="evenodd">
        <g id="Technologies-Tiles" transform="translate(-585.000000, -452.000000)" fill="#009CDE">
            <g id="Drupal" transform="translate(535.000000, 452.000000)">
                <path d="M107.008528,66.2296963 L106.776078,66.2296963 C106.299555,66.0706219 105.897748,65.7353683 105.647034,65.2889336 C103.548342,62.0475784 101.169048,59.006349 98.5407014,56.2080075 L95.3362103,52.7870521 L84.6933147,41.410665 C82.4584727,39.2776993 80.3298935,37.0284211 78.3175395,34.6713829 C78.2677287,34.582438 78.2129369,34.4969141 78.1515037,34.4148112 C77.7895456,33.891405 77.503964,33.3149741 77.304721,32.7043335 L77.304721,32.3810532 C77.0058566,30.4926859 77.6268305,28.5735299 78.9650792,27.2496202 C81.0239232,25.1269173 83.0993709,22.9888202 85.0585935,20.7651992 C87.217059,23.2282871 89.5249568,25.5887463 91.7996475,27.9321008 C96.4403484,32.3844742 100.639394,37.3003871 104.335351,42.6097099 C107.456825,47.161291 109.15205,52.5852158 109.200201,58.1562416 C109.173635,60.5594628 108.810016,62.9438687 108.120968,65.2376193 C107.963234,65.7610255 107.533201,66.1441725 107.008528,66.2296963 Z M73.3746534,72.5208333 C73.3912569,69.4864459 74.4821122,66.561529 76.4413348,64.2968565 C78.9982863,61.1666824 82.1197596,58.0878225 85.5068902,54.0339904 C89.5249568,58.4470228 92.1483227,61.4762788 94.7218778,64.7928951 C94.9244414,65.0494667 95.1004394,65.3248536 95.2531924,65.6156349 C96.661176,67.678471 97.4149786,70.1398484 97.4117683,72.662803 C97.4315822,79.4910299 92.0702858,85.0432405 85.4404758,85.0620558 C85.4288533,85.0637662 85.4188912,85.0637662 85.4072687,85.0637662 C78.7226669,85.0227148 73.3348048,79.4072165 73.3746534,72.5208333 Z M68.0067155,61.4403588 C66.9374449,62.8275562 66.0192669,64.3293556 65.2671246,65.9218104 C65.1542203,66.178382 64.9333927,66.3665346 64.6693957,66.4349537 L64.3705313,66.4349537 C63.5901629,66.4349537 62.7101731,64.8613142 62.7101731,64.8613142 C62.477723,64.4867196 62.2618764,64.0915992 62.0460299,63.6827951 L61.8965977,63.3560938 C59.8709607,58.583861 61.6309404,51.7949751 61.6309404,51.7949751 C62.4976473,48.4852007 63.9139328,45.3533161 65.8150428,42.5395803 C66.9772935,40.7538416 68.240826,39.0399429 69.6006593,37.4081472 L71.2610175,39.1186249 L79.0979078,47.3631274 C79.4017533,47.7137753 79.4017533,48.2440234 79.0979078,48.5963818 L70.9123423,57.9509843 L68.0067155,61.4403588 Z M85.0087827,0 C83.215596,7.11729769 77.0390637,13.4443547 70.5968742,20.0639034 C60.9501935,30.0017788 50.0084335,41.256722 50.0084335,58.1562416 C49.5883629,78.066202 64.9134684,94.5569174 84.2383766,94.9913788 C103.563285,95.4224192 119.570797,79.6364205 119.992528,59.7264601 C120.002491,59.2047645 120.002491,58.6796478 119.992528,58.1562416 C119.992528,41.256722 109.050768,30.0017788 99.4040877,20.0639034 C92.9618981,13.4443547 86.8351767,7.11729769 85.0087827,0 Z" id="icon-drupal"></path>
            </g>
        </g>
    </g>
</svg>